<svg width="60" height="60" viewBox="0 0 60 60" fill="none" xmlns="http://www.w3.org/2000/svg"><title>NVTS</title>
<rect width="60" height="60" fill="#5DE0E6"/>
<g clip-path="url(#clip0_2777_5194)">
<path d="M14.1016 20.1287C12.946 19.6207 11.6919 19.2024 10.5752 18.805C10.826 18.327 11.1037 17.8489 11.3844 17.3918C13.1968 17.3918 15.1526 17.4904 16.971 17.7533C17.192 17.7862 17.4129 17.822 17.6339 17.8579C27.1112 19.3907 36.469 24.4431 44.1338 32.6747C44.1995 32.3371 44.2682 32.0024 44.3249 31.6648C45.1699 26.7378 45.1222 21.9363 43.7755 17.4366C43.6531 17.0362 43.4053 16.0801 43.2679 15.6887C46.4718 19.0769 48.765 23.8187 49.1203 28.91C49.3293 31.8232 48.8874 34.6347 47.9319 37.2013C47.3347 38.7968 46.5345 40.2937 45.5701 41.6592C44.4056 43.2995 42.9962 44.7516 41.3898 45.9378C41.2972 45.7705 41.2106 45.5942 41.1181 45.4299C38.6607 40.9989 35.7195 36.9175 32.3216 33.2304C28.21 28.7696 23.6206 25.1333 18.7566 22.3845C17.9355 24.6254 17.3114 26.938 16.8934 29.2984C16.1081 33.7324 16.1111 38.0499 16.8456 41.9849C16.9203 42.3882 17.0039 42.7856 17.0934 43.183C15.8603 41.7638 14.8271 40.1533 14.0418 38.3845C13.1461 36.3647 12.5758 34.1507 12.4085 31.8052C12.2145 29.0146 12.4593 26.0148 13.1162 23.6065C13.4447 22.3755 13.7492 21.3447 14.1016 20.1287Z" fill="black"/>
</g>
<defs>
<clipPath id="clip0_2777_5194">
<rect width="40" height="31" fill="white" transform="translate(10 15)"/>
</clipPath>
</defs>
</svg>
